<svg version="1.1" xmlns="http://www.w3.org/2000/svg" style="display: block;" viewBox="0 0 2048 2048" width="1024" height="1024" preserveAspectRatio="none">
<path transform="translate(0,0)" fill="rgb(234,16,28)" d="M 255.294 745.954 C 285.507 718.721 319.791 697.488 361.599 714.775 C 381.976 723.201 392.83 738.224 400.932 758.211 C 423.879 717.499 465.422 700.393 508.866 723.508 C 520.692 729.8 529.503 738.861 538.976 748.15 C 521.593 748.17 512.933 749.192 496.66 741.751 C 491.352 738.296 485.983 734.937 480.554 731.675 C 483.276 734.542 491.045 743.048 493.694 745.078 C 494.959 746.999 494.636 746.304 495.243 748.443 C 487.216 754.592 463.92 745.499 455.946 741.208 L 464.052 751.82 C 456.82 753.676 451.714 754.649 444.326 755.851 C 438.075 751.089 435.576 748.812 428.15 745.949 C 431.161 749.538 434.416 754.109 437.276 757.908 C 425.746 761.597 414.081 765.169 403.307 770.738 C 461.498 759.905 503.732 787.291 518.279 844.854 C 559.612 833.577 603.686 838.426 641.579 858.419 C 684.387 881.41 718.791 918.946 732.201 966.097 C 745.709 1013.59 741.233 1066.24 717.55 1109.77 C 691.172 1158.25 645.603 1188.02 590.922 1193.99 C 570.186 1196.26 547.893 1195.41 527.985 1201.19 C 501.825 1208.8 490.858 1226.35 478.584 1248.76 C 498.745 1226.47 518.839 1220.42 548.563 1219.03 C 567.404 1218.06 586.295 1219.06 604.929 1222.01 C 679.996 1233.76 726.448 1256.49 779.7 1186.53 C 773.5 1181.73 767.893 1177.45 762.426 1171.88 C 739.065 1148.07 731.459 1111.35 758.974 1086.54 C 787.506 1060.82 828.554 1064.54 864.176 1066.24 C 831.805 1051.99 795.037 1038.21 770.681 1011.7 C 736.299 974.27 738.817 906.967 777.653 873.516 C 809.996 845.658 856.459 835.919 898.322 838.912 C 933.722 841.8 973.59 854.22 998.005 881.309 C 1016.85 902.215 1022.07 937.496 997.328 956.257 C 977.974 970.931 951.398 974.132 927.805 974.048 C 914.12 973.999 899.153 973.522 885.653 971.823 C 931.47 990.664 997.706 1023.85 1013.36 1074.34 C 1032.63 1136.51 991.877 1188.16 932.449 1204.41 C 880.541 1218.61 828.295 1213 780.885 1187.07 C 780.959 1223.24 774.395 1253.5 751.884 1282.87 C 735.905 1304.04 713.59 1319.57 688.183 1327.19 C 585.696 1357.28 531.157 1256.88 454.411 1267.94 C 426.192 1272.01 409.692 1291.26 393.486 1312.92 C 399.724 1283.44 399.846 1267.5 418.219 1240.61 C 435.723 1215.03 462.55 1197.31 492.954 1191.26 C 483.451 1187.63 473.909 1184.88 464.511 1180.82 C 421.047 1161.92 386.877 1128.07 373.087 1082.15 C 360.321 1039.63 365.974 1003.49 376.902 961.854 C 359.104 910.673 350.745 854.905 376.511 804.309 C 382.348 792.846 390.839 781.751 398.255 771.178 C 381.728 775.495 375.017 783.237 360.702 792.518 L 359.53 791.907 C 359.306 788.515 359.723 787.654 358.09 785.009 C 352.753 787.974 347.883 806.289 340.023 806.994 C 338.364 803.665 339.044 794.885 339.102 790.672 C 330.667 807.397 334.683 809.257 319.811 825.837 C 320.074 818.971 319.881 811.455 319.835 804.528 C 315.571 820.916 315.048 827.176 304.092 840.809 C 302.408 834.614 301.23 831.657 298.792 825.783 C 296.489 842.136 294.84 846.181 286.46 860.049 C 285.159 855.418 283.48 850.785 281.916 846.226 C 280.652 852.879 279.079 859.783 277.666 866.433 C 272.456 872.02 267.198 877.562 261.892 883.057 C 262.178 841.28 275.556 801.576 311.689 777.565 C 336.538 761.051 364.21 763.374 392.173 769.26 C 379.06 763.059 366.647 760.93 352.525 758.555 C 357.62 753.559 364.543 748.28 370.215 743.715 C 346.277 754.25 343.021 755.585 317.382 751.893 C 323.924 745.751 329.062 741.996 336.339 736.621 C 325.082 740.74 318.818 744.034 308.4 749.977 C 303.018 749.984 294.313 749.055 288.701 748.619 C 295.267 742.232 300.31 737.687 307.38 731.87 C 297.459 735.946 283.348 743.346 273.165 744.685 C 268.84 745.253 260.65 745.394 255.294 745.954 z M 553.806 1016.19 C 572.307 1010.41 580.316 1010.53 589.908 1027.55 C 596.186 1029.29 599.935 1031.13 601.66 1037.84 C 598.339 1050.12 562.378 1046.11 550.484 1045.95 L 487.045 1045.52 C 481.196 1040.61 479.683 1039.23 472.35 1037.03 C 467.678 1021.56 458.603 1009.05 439.499 1011.2 C 429.415 1012.34 423.788 1020.65 418.345 1028.46 C 402.097 1023.51 407.473 1028.23 398.317 1035.45 C 386.435 1033.24 381.163 1044.39 386.672 1051.3 C 395.407 1054.53 445.185 1052.49 458.796 1052.28 C 462.301 1052.29 486.852 1050.92 486.585 1050.86 C 481.701 1060.51 471.62 1058.03 462.123 1058 C 463.11 1061.88 465.206 1077.4 466.15 1082.64 C 470.962 1110.54 479.92 1137.36 497.581 1159.79 C 519.771 1187.97 562.64 1192.41 589.746 1168.68 C 623.392 1139.22 639.237 1088.72 641.901 1045.31 C 645.442 987.619 642.246 921.942 603.07 875.954 C 578.283 846.547 536.632 844.225 508.039 869.364 C 469.647 903.12 463.821 961.97 460.81 1010.14 C 468.477 996.936 478.525 985.931 493.486 981.162 C 505.627 977.265 518.824 978.398 530.123 984.308 C 543.499 991.463 549.605 1002.35 553.806 1016.19 z M 898.049 1194.44 C 931.442 1179.45 940.961 1144.08 927.025 1111.71 C 918.684 1092.34 889.464 1073.31 869.438 1068.49 C 849.248 1086.76 837.546 1103.82 836.073 1132.04 C 834.102 1169.79 855.348 1203.84 898.049 1194.44 z M 403.496 778.456 C 375.593 821.202 375.163 861.61 385.404 910.411 L 390.659 934.816 C 414.357 899.077 431.392 881.994 470.321 861.614 C 484.074 855.017 493.206 851.705 507.868 847.388 C 506.005 844.143 501.862 836.287 499.468 834.021 C 494.626 837.869 502.089 836.986 495.973 839.513 C 490.274 836.785 486.511 826.155 484.449 820.314 C 483.663 818.077 482.896 815.833 482.148 813.582 C 482.056 821.224 482.414 825.694 483.232 833.337 C 474.338 823.913 473.993 821.977 470.951 808.921 C 470.226 813.177 470.167 816.564 467.518 819.814 C 458.661 822.894 454.223 802.714 452.701 796.355 C 452.142 800.887 452.222 804.45 449.676 808.105 C 442.206 811.894 436.336 792.994 433.858 787.25 L 433.913 804.762 C 426.746 799.002 409.352 782.119 403.496 778.456 z M 882.842 971.073 C 886.911 971.824 886.959 972.156 890.632 969.529 C 932.865 939.314 940.118 851.447 869.037 855.178 C 853.361 859.353 841.162 865.708 832.391 880.222 C 825.086 892.292 823.092 906.844 826.883 920.434 C 834.341 947.788 859.577 959.509 882.842 971.073 z"/>
<path transform="translate(0,0)" fill="rgb(234,16,28)" d="M 458.796 1052.28 C 462.301 1052.29 486.852 1050.92 486.585 1050.86 C 481.701 1060.51 471.62 1058.03 462.123 1058 L 458.796 1052.28 z"/>
<path transform="translate(0,0)" fill="rgb(234,16,28)" d="M 1189.02 838.323 C 1292.28 832.552 1380.65 911.65 1386.31 1014.93 C 1391.97 1118.2 1312.78 1206.48 1209.5 1212.03 C 1106.37 1217.57 1018.25 1138.52 1012.6 1035.41 C 1006.95 932.288 1085.9 844.086 1189.02 838.323 z M 1112.32 1069.56 C 1117.34 1104.43 1125.74 1133.41 1143.85 1163.83 C 1154.98 1179.99 1170.12 1194.65 1190.06 1198.5 C 1205.53 1201.51 1221.56 1198.07 1234.43 1188.98 C 1268.18 1164.95 1277.91 1105.42 1284.65 1066.99 C 1285.13 1064.25 1286.97 1055.07 1285.79 1053.13 L 1285.13 1052.97 C 1209.67 1082.96 1191.34 1078.29 1112.32 1069.56 z M 1226.43 976.633 C 1238.77 986.035 1250.61 996.587 1252.36 1012.99 C 1254.68 1034.85 1242.34 1049.99 1225.49 1061.07 C 1245.05 1055.07 1261.7 1049.57 1280.97 1042.61 C 1294.05 1037.74 1310.92 1031.39 1323.33 1025.31 C 1298.78 1007.78 1256.37 980.096 1226.43 976.633 z M 1106.06 1058.7 C 1135.29 1061.7 1166.1 1064.8 1195.49 1065.14 C 1166.96 1049.94 1152.15 1030.04 1165.96 996.177 C 1170.11 985.991 1186.11 977.775 1187.1 975.362 L 1186.37 975.13 C 1137.72 992.062 1101.32 1018.47 1064.35 1053.92 C 1077.36 1055.35 1093.4 1056.74 1106.06 1058.7 z M 1189.52 851.24 C 1128.08 869.239 1116.4 946.174 1110.7 1001.18 C 1138.69 982.078 1166.65 962.654 1202.25 962.781 C 1235.34 962.711 1260.8 973.278 1288.94 990.336 C 1286.76 978.555 1285.79 966.287 1283.57 954.719 C 1277.52 923.306 1265.27 882.621 1237.62 863.337 C 1222.59 852.854 1207.3 850.343 1189.52 851.24 z"/>
<path transform="translate(0,0)" fill="rgb(234,16,28)" d="M 1350.22 842.083 C 1396.48 841.05 1444.79 842.626 1491.36 842.043 C 1525.98 842.344 1559.24 840.756 1593.85 843.672 C 1662.71 849.474 1697.2 928.454 1664.77 986.445 C 1642.61 1026.07 1595.51 1029.04 1556.08 1039.51 C 1580.46 1041.04 1606.34 1051.34 1626.27 1065.25 C 1716.41 1128.14 1660.95 1205.1 1707.62 1255.37 C 1719.67 1268.34 1735.89 1273.94 1753.27 1274.49 C 1773.73 1275.13 1786.3 1266.07 1800.54 1252.74 C 1774.23 1309.77 1742.77 1335.32 1677.76 1332.77 C 1654.28 1328.72 1637.33 1323.13 1618.19 1308.33 C 1585.01 1282.82 1566.78 1239.31 1567.92 1197.61 C 1569.29 1147.89 1578.76 1087.79 1534.11 1052.45 C 1520.15 1041.4 1505.97 1043.66 1496.08 1058.75 C 1482.09 1080.12 1481.1 1107.48 1485.44 1131.96 C 1491.4 1165 1503.4 1187.8 1530.99 1206.93 L 1417.63 1207.01 C 1394.85 1207.03 1368.09 1206.37 1345.7 1208.12 C 1409.84 1160.74 1398.05 1086.95 1398.07 1016.86 C 1398.1 952.143 1407.71 886.527 1350.22 842.083 z M 1531.66 1028.89 C 1551.1 1021.85 1552.87 1016.22 1562.91 999.486 C 1584.57 963.398 1581.66 859.622 1525.73 855.224 C 1513.12 857.71 1505.17 861.519 1498.11 873.136 C 1480.11 902.726 1476.96 944.363 1484.14 977.645 C 1489.59 1002.91 1501.9 1029.86 1531.66 1028.89 z"/>
<path transform="translate(0,0)" fill="rgb(249,242,249)" fill-opacity="0.00784314" d="M 480.554 731.675 C 485.983 734.937 491.352 738.296 496.66 741.751 L 493.694 745.078 C 491.045 743.048 483.276 734.542 480.554 731.675 z"/>
</svg>